{
    "asset" : {
        "generator" : "Khronos glTF Blender I/O v1.8.19",
        "version" : "2.0"
    },
    "scene" : 0,
    "scenes" : [
        {
            "name" : "Scene",
            "nodes" : [
                0,
                1,
                2
            ]
        }
    ],
    "nodes" : [
        {
            "mesh" : 0,
            "name" : "TrucksJoined",
            "rotation" : [
                0,
                0,
                0.6066761612892151,
                -0.7949490547180176
            ],
            "translation" : [
                0.02407980151474476,
                0.2660578787326813,
                -8.238538612204138e-06
            ]
        },
        {
            "mesh" : 1,
            "name" : "Deck"
        },
        {
            "mesh" : 2,
            "name" : "DeckScrews",
            "rotation" : [
                -0.9976605772972107,
                0,
                -0.06836235523223877,
                -3.55859270939618e-08
            ],
            "translation" : [
                0.9815853834152222,
                0,
                0
            ]
        }
    ],
    "materials" : [
        {
            "doubleSided" : true,
            "name" : "TruckMainM",
            "pbrMetallicRoughness" : {
                "baseColorFactor" : [
                    1,
                    0.5121512413024902,
                    0.46439746022224426,
                    1
                ]
            }
        },
        {
            "doubleSided" : true,
            "name" : "WheelM",
            "pbrMetallicRoughness" : {}
        },
        {
            "doubleSided" : true,
            "name" : "BearingM",
            "pbrMetallicRoughness" : {
                "baseColorFactor" : [
                    0.08571428805589676,
                    0.08571428805589676,
                    0.08571428805589676,
                    1
                ],
                "metallicFactor" : 0,
                "roughnessFactor" : 0.5
            }
        },
        {
            "doubleSided" : true,
            "name" : "TruckBaseM",
            "pbrMetallicRoughness" : {
                "baseColorFactor" : [
                    0.35416391491889954,
                    0.5066609978675842,
                    0.8000000715255737,
                    1
                ],
                "metallicFactor" : 0,
                "roughnessFactor" : 0.5
            }
        },
        {
            "doubleSided" : true,
            "name" : "OuterNutsM",
            "pbrMetallicRoughness" : {
                "baseColorFactor" : [
                    0.800000011920929,
                    0.800000011920929,
                    0.800000011920929,
                    1
                ],
                "metallicFactor" : 0,
                "roughnessFactor" : 0.5
            }
        },
        {
            "doubleSided" : true,
            "name" : "BushingM",
            "pbrMetallicRoughness" : {
                "baseColorFactor" : [
                    0.40556520223617554,
                    0.3282441794872284,
                    0.8000000715255737,
                    1
                ],
                "metallicFactor" : 0,
                "roughnessFactor" : 0.5
            }
        },
        {
            "doubleSided" : true,
            "name" : "BaseScrewsM",
            "pbrMetallicRoughness" : {
                "baseColorFactor" : [
                    0.21108795702457428,
                    0.8000000715255737,
                    0.5360124111175537,
                    1
                ],
                "metallicFactor" : 0,
                "roughnessFactor" : 0.5
            }
        },
        {
            "doubleSided" : true,
            "name" : "WoodM",
            "pbrMetallicRoughness" : {
                "baseColorFactor" : [
                    0.8000000715255737,
                    0.43735429644584656,
                    0.09788691252470016,
                    1
                ],
                "metallicFactor" : 0
            }
        },
        {
            "doubleSided" : true,
            "name" : "DeckM",
            "pbrMetallicRoughness" : {
                "baseColorTexture" : {
                    "index" : 0
                },
                "metallicFactor" : 0,
                "roughnessFactor" : 0.5
            }
        },
        {
            "doubleSided" : true,
            "name" : "GripTapeM",
            "pbrMetallicRoughness" : {
                "baseColorFactor" : [
                    0.800000011920929,
                    0.800000011920929,
                    0.800000011920929,
                    1
                ],
                "metallicFactor" : 0,
                "roughnessFactor" : 0.5
            }
        }
    ],
    "meshes" : [
        {
            "name" : "TrucksJoined",
            "primitives" : [
                {
                    "attributes" : {
                        "POSITION" : 0,
                        "NORMAL" : 1,
                        "TEXCOORD_0" : 2
                    },
                    "indices" : 3,
                    "material" : 0
                },
                {
                    "attributes" : {
                        "POSITION" : 4,
                        "NORMAL" : 5,
                        "TEXCOORD_0" : 6
                    },
                    "indices" : 7,
                    "material" : 1
                },
                {
                    "attributes" : {
                        "POSITION" : 8,
                        "NORMAL" : 9,
                        "TEXCOORD_0" : 10
                    },
                    "indices" : 11,
                    "material" : 2
                },
                {
                    "attributes" : {
                        "POSITION" : 12,
                        "NORMAL" : 13,
                        "TEXCOORD_0" : 14
                    },
                    "indices" : 15,
                    "material" : 3
                },
                {
                    "attributes" : {
                        "POSITION" : 16,
                        "NORMAL" : 17,
                        "TEXCOORD_0" : 18
                    },
                    "indices" : 19,
                    "material" : 4
                },
                {
                    "attributes" : {
                        "POSITION" : 20,
                        "NORMAL" : 21,
                        "TEXCOORD_0" : 22
                    },
                    "indices" : 23,
                    "material" : 5
                },
                {
                    "attributes" : {
                        "POSITION" : 24,
                        "NORMAL" : 25,
                        "TEXCOORD_0" : 26
                    },
                    "indices" : 27,
                    "material" : 6
                }
            ]
        },
        {
            "name" : "Deck",
            "primitives" : [
                {
                    "attributes" : {
                        "POSITION" : 28,
                        "NORMAL" : 29,
                        "TEXCOORD_0" : 30
                    },
                    "indices" : 31,
                    "material" : 7
                },
                {
                    "attributes" : {
                        "POSITION" : 32,
                        "NORMAL" : 33,
                        "TEXCOORD_0" : 34
                    },
                    "indices" : 35,
                    "material" : 8
                },
                {
                    "attributes" : {
                        "POSITION" : 36,
                        "NORMAL" : 37,
                        "TEXCOORD_0" : 38
                    },
                    "indices" : 39,
                    "material" : 9
                }
            ]
        },
        {
            "name" : "DeckScrews",
            "primitives" : [
                {
                    "attributes" : {
                        "POSITION" : 40,
                        "NORMAL" : 41,
                        "TEXCOORD_0" : 42
                    },
                    "indices" : 43,
                    "material" : 6
                }
            ]
        }
    ],
    "textures" : [
        {
            "sampler" : 0,
            "source" : 0
        }
    ],
    "images" : [
        {
            "bufferView" : 36,
            "mimeType" : "image/png",
            "name" : "MicrosoftTeams-image (1)"
        }
    ],
    "accessors" : [
        {
            "bufferView" : 0,
            "componentType" : 5126,
            "count" : 22167,
            "max" : [
                0.4100618064403534,
                1.00392484664917,
                0.541630208492279
            ],
            "min" : [
                -0.3323791027069092,
                -1.0587365627288818,
                -0.5416136980056763
            ],
            "type" : "VEC3"
        },
        {
            "bufferView" : 1,
            "componentType" : 5126,
            "count" : 22167,
            "type" : "VEC3"
        },
        {
            "bufferView" : 2,
            "componentType" : 5126,
            "count" : 22167,
            "type" : "VEC2"
        },
        {
            "bufferView" : 3,
            "componentType" : 5123,
            "count" : 79152,
            "type" : "SCALAR"
        },
        {
            "bufferView" : 4,
            "componentType" : 5126,
            "count" : 9228,
            "max" : [
                0.3703137934207916,
                1.109645962715149,
                0.5194222927093506
            ],
            "min" : [
                -0.4381002187728882,
                -1.0910651683807373,
                -0.5194057822227478
            ],
            "type" : "VEC3"
        },
        {
            "bufferView" : 5,
            "componentType" : 5126,
            "count" : 9228,
            "type" : "VEC3"
        },
        {
            "bufferView" : 6,
            "componentType" : 5126,
            "count" : 9228,
            "type" : "VEC2"
        },
        {
            "bufferView" : 7,
            "componentType" : 5123,
            "count" : 29184,
            "type" : "SCALAR"
        },
        {
            "bufferView" : 8,
            "componentType" : 5126,
            "count" : 2957,
            "max" : [
                0.2903308570384979,
                1.0296629667282104,
                0.5033876299858093
            ],
            "min" : [
                -0.3581172823905945,
                -1.0110821723937988,
                -0.5033711194992065
            ],
            "type" : "VEC3"
        },
        {
            "bufferView" : 9,
            "componentType" : 5126,
            "count" : 2957,
            "type" : "VEC3"
        },
        {
            "bufferView" : 10,
            "componentType" : 5126,
            "count" : 2957,
            "type" : "VEC2"
        },
        {
            "bufferView" : 11,
            "componentType" : 5123,
            "count" : 12288,
            "type" : "SCALAR"
        },
        {
            "bufferView" : 12,
            "componentType" : 5126,
            "count" : 3580,
            "max" : [
                0.5018792152404785,
                1.0258630514144897,
                0.11613728851079941
            ],
            "min" : [
                -0.21153679490089417,
                -1.1347682476043701,
                -0.11612081527709961
            ],
            "type" : "VEC3"
        },
        {
            "bufferView" : 13,
            "componentType" : 5126,
            "count" : 3580,
            "type" : "VEC3"
        },
        {
            "bufferView" : 14,
            "componentType" : 5126,
            "count" : 3580,
            "type" : "VEC2"
        },
        {
            "bufferView" : 15,
            "componentType" : 5123,
            "count" : 16788,
            "type" : "SCALAR"
        },
        {
            "bufferView" : 16,
            "componentType" : 5126,
            "count" : 3465,
            "max" : [
                0.2811702489852905,
                0.9986997246742249,
                0.5217220783233643
            ],
            "min" : [
                -0.3270663619041443,
                -0.9801186323165894,
                -0.5217055678367615
            ],
            "type" : "VEC3"
        },
        {
            "bufferView" : 17,
            "componentType" : 5126,
            "count" : 3465,
            "type" : "VEC3"
        },
        {
            "bufferView" : 18,
            "componentType" : 5126,
            "count" : 3465,
            "type" : "VEC2"
        },
        {
            "bufferView" : 19,
            "componentType" : 5123,
            "count" : 3672,
            "type" : "SCALAR"
        },
        {
            "bufferView" : 20,
            "componentType" : 5126,
            "count" : 1680,
            "max" : [
                0.37279483675956726,
                0.8856920599937439,
                0.034821767359972
            ],
            "min" : [
                -0.21032291650772095,
                -0.9182528257369995,
                -0.03480527922511101
            ],
            "type" : "VEC3"
        },
        {
            "bufferView" : 21,
            "componentType" : 5126,
            "count" : 1680,
            "type" : "VEC3"
        },
        {
            "bufferView" : 22,
            "componentType" : 5126,
            "count" : 1680,
            "type" : "VEC2"
        },
        {
            "bufferView" : 23,
            "componentType" : 5123,
            "count" : 5352,
            "type" : "SCALAR"
        },
        {
            "bufferView" : 24,
            "componentType" : 5126,
            "count" : 22688,
            "max" : [
                0.48398083448410034,
                1.0204541683197021,
                0.10990238934755325
            ],
            "min" : [
                -0.13183963298797607,
                -1.1191861629486084,
                -0.10988591611385345
            ],
            "type" : "VEC3"
        },
        {
            "bufferView" : 25,
            "componentType" : 5126,
            "count" : 22688,
            "type" : "VEC3"
        },
        {
            "bufferView" : 26,
            "componentType" : 5126,
            "count" : 22688,
            "type" : "VEC2"
        },
        {
            "bufferView" : 27,
            "componentType" : 5123,
            "count" : 111840,
            "type" : "SCALAR"
        },
        {
            "bufferView" : 28,
            "componentType" : 5126,
            "count" : 1159,
            "max" : [
                1.9729640483856201,
                0.040327806025743484,
                0.4585823118686676
            ],
            "min" : [
                -1.9509458541870117,
                -0.23156897723674774,
                -0.4572542607784271
            ],
            "type" : "VEC3"
        },
        {
            "bufferView" : 29,
            "componentType" : 5126,
            "count" : 1159,
            "type" : "VEC3"
        },
        {
            "bufferView" : 30,
            "componentType" : 5126,
            "count" : 1159,
            "type" : "VEC2"
        },
        {
            "bufferView" : 31,
            "componentType" : 5123,
            "count" : 3504,
            "type" : "SCALAR"
        },
        {
            "bufferView" : 32,
            "componentType" : 5126,
            "count" : 234,
            "max" : [
                1.9585578441619873,
                0.060085196048021317,
                0.44528332352638245
            ],
            "min" : [
                -1.9372918605804443,
                -0.19041477143764496,
                -0.4441917836666107
            ],
            "type" : "VEC3"
        },
        {
            "bufferView" : 33,
            "componentType" : 5126,
            "count" : 234,
            "type" : "VEC3"
        },
        {
            "bufferView" : 34,
            "componentType" : 5126,
            "count" : 234,
            "type" : "VEC2"
        },
        {
            "bufferView" : 35,
            "componentType" : 5123,
            "count" : 1200,
            "type" : "SCALAR"
        },
        {
            "bufferView" : 37,
            "componentType" : 5126,
            "count" : 370,
            "max" : [
                1.9585578441619873,
                0.01839246228337288,
                0.4433266222476959
            ],
            "min" : [
                -1.9372918605804443,
                -0.23092113435268402,
                -0.4443291127681732
            ],
            "type" : "VEC3"
        },
        {
            "bufferView" : 38,
            "componentType" : 5126,
            "count" : 370,
            "type" : "VEC3"
        },
        {
            "bufferView" : 39,
            "componentType" : 5126,
            "count" : 370,
            "type" : "VEC2"
        },
        {
            "bufferView" : 40,
            "componentType" : 5123,
            "count" : 1368,
            "type" : "SCALAR"
        },
        {
            "bufferView" : 41,
            "componentType" : 5126,
            "count" : 4030,
            "max" : [
                0.15499356389045715,
                0.0009947986109182239,
                0.12222268432378769
            ],
            "min" : [
                -2.0570456981658936,
                -0.001043712254613638,
                -0.3839097321033478
            ],
            "type" : "VEC3"
        },
        {
            "bufferView" : 42,
            "componentType" : 5126,
            "count" : 4030,
            "type" : "VEC3"
        },
        {
            "bufferView" : 43,
            "componentType" : 5126,
            "count" : 4030,
            "type" : "VEC2"
        },
        {
            "bufferView" : 44,
            "componentType" : 5123,
            "count" : 4272,
            "type" : "SCALAR"
        }
    ],
    "bufferViews" : [
        {
            "buffer" : 0,
            "byteLength" : 266004,
            "byteOffset" : 0
        },
        {
            "buffer" : 0,
            "byteLength" : 266004,
            "byteOffset" : 266004
        },
        {
            "buffer" : 0,
            "byteLength" : 177336,
            "byteOffset" : 532008
        },
        {
            "buffer" : 0,
            "byteLength" : 158304,
            "byteOffset" : 709344
        },
        {
            "buffer" : 0,
            "byteLength" : 110736,
            "byteOffset" : 867648
        },
        {
            "buffer" : 0,
            "byteLength" : 110736,
            "byteOffset" : 978384
        },
        {
            "buffer" : 0,
            "byteLength" : 73824,
            "byteOffset" : 1089120
        },
        {
            "buffer" : 0,
            "byteLength" : 58368,
            "byteOffset" : 1162944
        },
        {
            "buffer" : 0,
            "byteLength" : 35484,
            "byteOffset" : 1221312
        },
        {
            "buffer" : 0,
            "byteLength" : 35484,
            "byteOffset" : 1256796
        },
        {
            "buffer" : 0,
            "byteLength" : 23656,
            "byteOffset" : 1292280
        },
        {
            "buffer" : 0,
            "byteLength" : 24576,
            "byteOffset" : 1315936
        },
        {
            "buffer" : 0,
            "byteLength" : 42960,
            "byteOffset" : 1340512
        },
        {
            "buffer" : 0,
            "byteLength" : 42960,
            "byteOffset" : 1383472
        },
        {
            "buffer" : 0,
            "byteLength" : 28640,
            "byteOffset" : 1426432
        },
        {
            "buffer" : 0,
            "byteLength" : 33576,
            "byteOffset" : 1455072
        },
        {
            "buffer" : 0,
            "byteLength" : 41580,
            "byteOffset" : 1488648
        },
        {
            "buffer" : 0,
            "byteLength" : 41580,
            "byteOffset" : 1530228
        },
        {
            "buffer" : 0,
            "byteLength" : 27720,
            "byteOffset" : 1571808
        },
        {
            "buffer" : 0,
            "byteLength" : 7344,
            "byteOffset" : 1599528
        },
        {
            "buffer" : 0,
            "byteLength" : 20160,
            "byteOffset" : 1606872
        },
        {
            "buffer" : 0,
            "byteLength" : 20160,
            "byteOffset" : 1627032
        },
        {
            "buffer" : 0,
            "byteLength" : 13440,
            "byteOffset" : 1647192
        },
        {
            "buffer" : 0,
            "byteLength" : 10704,
            "byteOffset" : 1660632
        },
        {
            "buffer" : 0,
            "byteLength" : 272256,
            "byteOffset" : 1671336
        },
        {
            "buffer" : 0,
            "byteLength" : 272256,
            "byteOffset" : 1943592
        },
        {
            "buffer" : 0,
            "byteLength" : 181504,
            "byteOffset" : 2215848
        },
        {
            "buffer" : 0,
            "byteLength" : 223680,
            "byteOffset" : 2397352
        },
        {
            "buffer" : 0,
            "byteLength" : 13908,
            "byteOffset" : 2621032
        },
        {
            "buffer" : 0,
            "byteLength" : 13908,
            "byteOffset" : 2634940
        },
        {
            "buffer" : 0,
            "byteLength" : 9272,
            "byteOffset" : 2648848
        },
        {
            "buffer" : 0,
            "byteLength" : 7008,
            "byteOffset" : 2658120
        },
        {
            "buffer" : 0,
            "byteLength" : 2808,
            "byteOffset" : 2665128
        },
        {
            "buffer" : 0,
            "byteLength" : 2808,
            "byteOffset" : 2667936
        },
        {
            "buffer" : 0,
            "byteLength" : 1872,
            "byteOffset" : 2670744
        },
        {
            "buffer" : 0,
            "byteLength" : 2400,
            "byteOffset" : 2672616
        },
        {
            "buffer" : 0,
            "byteLength" : 37845,
            "byteOffset" : 2675016
        },
        {
            "buffer" : 0,
            "byteLength" : 4440,
            "byteOffset" : 2712864
        },
        {
            "buffer" : 0,
            "byteLength" : 4440,
            "byteOffset" : 2717304
        },
        {
            "buffer" : 0,
            "byteLength" : 2960,
            "byteOffset" : 2721744
        },
        {
            "buffer" : 0,
            "byteLength" : 2736,
            "byteOffset" : 2724704
        },
        {
            "buffer" : 0,
            "byteLength" : 48360,
            "byteOffset" : 2727440
        },
        {
            "buffer" : 0,
            "byteLength" : 48360,
            "byteOffset" : 2775800
        },
        {
            "buffer" : 0,
            "byteLength" : 32240,
            "byteOffset" : 2824160
        },
        {
            "buffer" : 0,
            "byteLength" : 8544,
            "byteOffset" : 2856400
        }
    ],
    "samplers" : [
        {
            "magFilter" : 9729,
            "minFilter" : 9987
        }
    ],
    "buffers" : [
        {
            "byteLength" : 2864944,
            "uri" : "data:application/octet-stream;base64,"
        }
    ]
}
