{
    "asset" : {
        "generator" : "Khronos glTF Blender I/O v1.8.19",
        "version" : "2.0"
    },
    "scene" : 0,
    "scenes" : [
        {
            "name" : "Scene",
            "nodes" : [
                0,
                1,
                2
            ]
        }
    ],
    "nodes" : [
        {
            "mesh" : 0,
            "name" : "TrucksJoined"
        },
        {
            "mesh" : 1,
            "name" : "Deck"
        },
        {
            "mesh" : 2,
            "name" : "DeckScrews"
        }
    ],
    "materials" : [
        {
            "doubleSided" : true,
            "name" : "TruckMainM",
            "pbrMetallicRoughness" : {
                "baseColorFactor" : [
                    1,
                    0.5121512413024902,
                    0.46439746022224426,
                    1
                ]
            }
        },
        {
            "doubleSided" : true,
            "name" : "WheelM",
            "pbrMetallicRoughness" : {}
        },
        {
            "doubleSided" : true,
            "name" : "BearingM",
            "pbrMetallicRoughness" : {
                "baseColorFactor" : [
                    0.08571428805589676,
                    0.08571428805589676,
                    0.08571428805589676,
                    1
                ],
                "metallicFactor" : 0,
                "roughnessFactor" : 0.5
            }
        },
        {
            "doubleSided" : true,
            "name" : "TruckBaseM",
            "pbrMetallicRoughness" : {
                "baseColorFactor" : [
                    0.35416391491889954,
                    0.5066609978675842,
                    0.8000000715255737,
                    1
                ],
                "metallicFactor" : 0,
                "roughnessFactor" : 0.5
            }
        },
        {
            "doubleSided" : true,
            "name" : "OuterNutsM",
            "pbrMetallicRoughness" : {
                "baseColorFactor" : [
                    0.800000011920929,
                    0.800000011920929,
                    0.800000011920929,
                    1
                ],
                "metallicFactor" : 0,
                "roughnessFactor" : 0.5
            }
        },
        {
            "doubleSided" : true,
            "name" : "BushingM",
            "pbrMetallicRoughness" : {
                "baseColorFactor" : [
                    0.40556520223617554,
                    0.3282441794872284,
                    0.8000000715255737,
                    1
                ],
                "metallicFactor" : 0,
                "roughnessFactor" : 0.5
            }
        },
        {
            "doubleSided" : true,
            "name" : "BaseScrewsM",
            "pbrMetallicRoughness" : {
                "baseColorFactor" : [
                    0.21108795702457428,
                    0.8000000715255737,
                    0.5360124111175537,
                    1
                ],
                "metallicFactor" : 0,
                "roughnessFactor" : 0.5
            }
        },
        {
            "doubleSided" : true,
            "name" : "WoodM",
            "pbrMetallicRoughness" : {
                "baseColorFactor" : [
                    0.8000000715255737,
                    0.43735429644584656,
                    0.09788691252470016,
                    1
                ],
                "metallicFactor" : 0
            }
        },
        {
            "doubleSided" : true,
            "name" : "DeckM",
            "pbrMetallicRoughness" : {
                "baseColorTexture" : {
                    "index" : 0
                },
                "metallicFactor" : 0,
                "roughnessFactor" : 0.5
            }
        },
        {
            "doubleSided" : true,
            "name" : "GripTapeM",
            "pbrMetallicRoughness" : {
                "baseColorFactor" : [
                    0.800000011920929,
                    0.800000011920929,
                    0.800000011920929,
                    1
                ],
                "metallicFactor" : 0,
                "roughnessFactor" : 0.5
            }
        }
    ],
    "meshes" : [
        {
            "name" : "TrucksJoined",
            "primitives" : [
                {
                    "attributes" : {
                        "POSITION" : 0,
                        "NORMAL" : 1,
                        "TEXCOORD_0" : 2
                    },
                    "indices" : 3,
                    "material" : 0
                },
                {
                    "attributes" : {
                        "POSITION" : 4,
                        "NORMAL" : 5,
                        "TEXCOORD_0" : 6
                    },
                    "indices" : 7,
                    "material" : 1
                },
                {
                    "attributes" : {
                        "POSITION" : 8,
                        "NORMAL" : 9,
                        "TEXCOORD_0" : 10
                    },
                    "indices" : 11,
                    "material" : 2
                },
                {
                    "attributes" : {
                        "POSITION" : 12,
                        "NORMAL" : 13,
                        "TEXCOORD_0" : 14
                    },
                    "indices" : 15,
                    "material" : 3
                },
                {
                    "attributes" : {
                        "POSITION" : 16,
                        "NORMAL" : 17,
                        "TEXCOORD_0" : 18
                    },
                    "indices" : 19,
                    "material" : 4
                },
                {
                    "attributes" : {
                        "POSITION" : 20,
                        "NORMAL" : 21,
                        "TEXCOORD_0" : 22
                    },
                    "indices" : 23,
                    "material" : 5
                },
                {
                    "attributes" : {
                        "POSITION" : 24,
                        "NORMAL" : 25,
                        "TEXCOORD_0" : 26
                    },
                    "indices" : 27,
                    "material" : 6
                }
            ]
        },
        {
            "name" : "Deck",
            "primitives" : [
                {
                    "attributes" : {
                        "POSITION" : 28,
                        "NORMAL" : 29,
                        "TEXCOORD_0" : 30
                    },
                    "indices" : 31,
                    "material" : 7
                },
                {
                    "attributes" : {
                        "POSITION" : 32,
                        "NORMAL" : 33,
                        "TEXCOORD_0" : 34
                    },
                    "indices" : 35,
                    "material" : 8
                },
                {
                    "attributes" : {
                        "POSITION" : 36,
                        "NORMAL" : 37,
                        "TEXCOORD_0" : 38
                    },
                    "indices" : 39,
                    "material" : 9
                }
            ]
        },
        {
            "name" : "DeckScrews",
            "primitives" : [
                {
                    "attributes" : {
                        "POSITION" : 40,
                        "NORMAL" : 41,
                        "TEXCOORD_0" : 42
                    },
                    "indices" : 43,
                    "material" : 6
                }
            ]
        }
    ],
    "textures" : [
        {
            "sampler" : 0,
            "source" : 0
        }
    ],
    "images" : [
        {
            "bufferView" : 36,
            "mimeType" : "image/png",
            "name" : "MicrosoftTeams-image (1)"
        }
    ],
    "accessors" : [
        {
            "bufferView" : 0,
            "componentType" : 5126,
            "count" : 19630,
            "max" : [
                1.0848461389541626,
                -0.12568485736846924,
                0.5414605140686035
            ],
            "min" : [
                -1.0366520881652832,
                -0.3401854634284973,
                -0.5417829751968384
            ],
            "type" : "VEC3"
        },
        {
            "bufferView" : 1,
            "componentType" : 5126,
            "count" : 19630,
            "type" : "VEC3"
        },
        {
            "bufferView" : 2,
            "componentType" : 5126,
            "count" : 19630,
            "type" : "VEC2"
        },
        {
            "bufferView" : 3,
            "componentType" : 5123,
            "count" : 78972,
            "type" : "SCALAR"
        },
        {
            "bufferView" : 4,
            "componentType" : 5126,
            "count" : 8834,
            "max" : [
                1.1600265502929688,
                -0.16141965985298157,
                0.519252598285675
            ],
            "min" : [
                -1.1118322610855103,
                -0.4461713433265686,
                -0.5195750594139099
            ],
            "type" : "VEC3"
        },
        {
            "bufferView" : 5,
            "componentType" : 5126,
            "count" : 8834,
            "type" : "VEC3"
        },
        {
            "bufferView" : 6,
            "componentType" : 5126,
            "count" : 8834,
            "type" : "VEC2"
        },
        {
            "bufferView" : 7,
            "componentType" : 5123,
            "count" : 29184,
            "type" : "SCALAR"
        },
        {
            "bufferView" : 8,
            "componentType" : 5126,
            "count" : 3142,
            "max" : [
                1.079843282699585,
                -0.24160295724868774,
                0.5032179355621338
            ],
            "min" : [
                -1.031649112701416,
                -0.3659880757331848,
                -0.5035403966903687
            ],
            "type" : "VEC3"
        },
        {
            "bufferView" : 9,
            "componentType" : 5126,
            "count" : 3142,
            "type" : "VEC3"
        },
        {
            "bufferView" : 10,
            "componentType" : 5126,
            "count" : 3142,
            "type" : "VEC2"
        },
        {
            "bufferView" : 11,
            "componentType" : 5123,
            "count" : 12288,
            "type" : "SCALAR"
        },
        {
            "bufferView" : 12,
            "componentType" : 5126,
            "count" : 3552,
            "max" : [
                1.1418991088867188,
                -0.05414843559265137,
                0.11596766859292984
            ],
            "min" : [
                -1.093705177307129,
                -0.24155806005001068,
                -0.11629010736942291
            ],
            "type" : "VEC3"
        },
        {
            "bufferView" : 13,
            "componentType" : 5126,
            "count" : 3552,
            "type" : "VEC3"
        },
        {
            "bufferView" : 14,
            "componentType" : 5126,
            "count" : 3552,
            "type" : "VEC2"
        },
        {
            "bufferView" : 15,
            "componentType" : 5123,
            "count" : 16788,
            "type" : "SCALAR"
        },
        {
            "bufferView" : 16,
            "componentType" : 5126,
            "count" : 3239,
            "max" : [
                1.0456215143203735,
                -0.230490580201149,
                0.5215523838996887
            ],
            "min" : [
                -0.9974274039268494,
                -0.3359203338623047,
                -0.5218748450279236
            ],
            "type" : "VEC3"
        },
        {
            "bufferView" : 17,
            "componentType" : 5126,
            "count" : 3239,
            "type" : "VEC3"
        },
        {
            "bufferView" : 18,
            "componentType" : 5126,
            "count" : 3239,
            "type" : "VEC2"
        },
        {
            "bufferView" : 19,
            "componentType" : 5123,
            "count" : 3456,
            "type" : "SCALAR"
        },
        {
            "bufferView" : 20,
            "componentType" : 5126,
            "count" : 1610,
            "max" : [
                0.9564254283905029,
                -0.13242311775684357,
                0.034652143716812134
            ],
            "min" : [
                -0.9082314372062683,
                -0.2413579821586609,
                -0.034974582493305206
            ],
            "type" : "VEC3"
        },
        {
            "bufferView" : 21,
            "componentType" : 5126,
            "count" : 1610,
            "type" : "VEC3"
        },
        {
            "bufferView" : 22,
            "componentType" : 5126,
            "count" : 1610,
            "type" : "VEC2"
        },
        {
            "bufferView" : 23,
            "componentType" : 5123,
            "count" : 5352,
            "type" : "SCALAR"
        },
        {
            "bufferView" : 24,
            "componentType" : 5126,
            "count" : 22287,
            "max" : [
                1.1309006214141846,
                -0.06815358996391296,
                0.10973259061574936
            ],
            "min" : [
                -1.0827066898345947,
                -0.10354673862457275,
                -0.11005516350269318
            ],
            "type" : "VEC3"
        },
        {
            "bufferView" : 25,
            "componentType" : 5126,
            "count" : 22287,
            "type" : "VEC3"
        },
        {
            "bufferView" : 26,
            "componentType" : 5126,
            "count" : 22287,
            "type" : "VEC2"
        },
        {
            "bufferView" : 27,
            "componentType" : 5123,
            "count" : 111168,
            "type" : "SCALAR"
        },
        {
            "bufferView" : 28,
            "componentType" : 5126,
            "count" : 1159,
            "max" : [
                1.9759995937347412,
                0.2289748638868332,
                0.45713362097740173
            ],
            "min" : [
                -1.9479103088378906,
                -0.0429217703640461,
                -0.458702951669693
            ],
            "type" : "VEC3"
        },
        {
            "bufferView" : 29,
            "componentType" : 5126,
            "count" : 1159,
            "type" : "VEC3"
        },
        {
            "bufferView" : 30,
            "componentType" : 5126,
            "count" : 1159,
            "type" : "VEC2"
        },
        {
            "bufferView" : 31,
            "componentType" : 5123,
            "count" : 3504,
            "type" : "SCALAR"
        },
        {
            "bufferView" : 32,
            "componentType" : 5126,
            "count" : 234,
            "max" : [
                1.9615933895111084,
                0.1878206580877304,
                0.4440711438655853
            ],
            "min" : [
                -1.9342563152313232,
                -0.06267929822206497,
                -0.44540396332740784
            ],
            "type" : "VEC3"
        },
        {
            "bufferView" : 33,
            "componentType" : 5126,
            "count" : 234,
            "type" : "VEC3"
        },
        {
            "bufferView" : 34,
            "componentType" : 5126,
            "count" : 234,
            "type" : "VEC2"
        },
        {
            "bufferView" : 35,
            "componentType" : 5123,
            "count" : 1200,
            "type" : "SCALAR"
        },
        {
            "bufferView" : 37,
            "componentType" : 5126,
            "count" : 370,
            "max" : [
                1.9615933895111084,
                0.22832702100276947,
                0.4442084729671478
            ],
            "min" : [
                -1.9342563152313232,
                -0.020986659452319145,
                -0.4434472620487213
            ],
            "type" : "VEC3"
        },
        {
            "bufferView" : 38,
            "componentType" : 5126,
            "count" : 370,
            "type" : "VEC3"
        },
        {
            "bufferView" : 39,
            "componentType" : 5126,
            "count" : 370,
            "type" : "VEC2"
        },
        {
            "bufferView" : 40,
            "componentType" : 5123,
            "count" : 1368,
            "type" : "SCALAR"
        },
        {
            "bufferView" : 41,
            "componentType" : 5126,
            "count" : 4201,
            "max" : [
                1.1259303092956543,
                -0.001599340932443738,
                0.10577915608882904
            ],
            "min" : [
                -1.082677960395813,
                -0.0036378437653183937,
                -0.1058725118637085
            ],
            "type" : "VEC3"
        },
        {
            "bufferView" : 42,
            "componentType" : 5126,
            "count" : 4201,
            "type" : "VEC3"
        },
        {
            "bufferView" : 43,
            "componentType" : 5126,
            "count" : 4201,
            "type" : "VEC2"
        },
        {
            "bufferView" : 44,
            "componentType" : 5123,
            "count" : 4272,
            "type" : "SCALAR"
        }
    ],
    "bufferViews" : [
        {
            "buffer" : 0,
            "byteLength" : 235560,
            "byteOffset" : 0
        },
        {
            "buffer" : 0,
            "byteLength" : 235560,
            "byteOffset" : 235560
        },
        {
            "buffer" : 0,
            "byteLength" : 157040,
            "byteOffset" : 471120
        },
        {
            "buffer" : 0,
            "byteLength" : 157944,
            "byteOffset" : 628160
        },
        {
            "buffer" : 0,
            "byteLength" : 106008,
            "byteOffset" : 786104
        },
        {
            "buffer" : 0,
            "byteLength" : 106008,
            "byteOffset" : 892112
        },
        {
            "buffer" : 0,
            "byteLength" : 70672,
            "byteOffset" : 998120
        },
        {
            "buffer" : 0,
            "byteLength" : 58368,
            "byteOffset" : 1068792
        },
        {
            "buffer" : 0,
            "byteLength" : 37704,
            "byteOffset" : 1127160
        },
        {
            "buffer" : 0,
            "byteLength" : 37704,
            "byteOffset" : 1164864
        },
        {
            "buffer" : 0,
            "byteLength" : 25136,
            "byteOffset" : 1202568
        },
        {
            "buffer" : 0,
            "byteLength" : 24576,
            "byteOffset" : 1227704
        },
        {
            "buffer" : 0,
            "byteLength" : 42624,
            "byteOffset" : 1252280
        },
        {
            "buffer" : 0,
            "byteLength" : 42624,
            "byteOffset" : 1294904
        },
        {
            "buffer" : 0,
            "byteLength" : 28416,
            "byteOffset" : 1337528
        },
        {
            "buffer" : 0,
            "byteLength" : 33576,
            "byteOffset" : 1365944
        },
        {
            "buffer" : 0,
            "byteLength" : 38868,
            "byteOffset" : 1399520
        },
        {
            "buffer" : 0,
            "byteLength" : 38868,
            "byteOffset" : 1438388
        },
        {
            "buffer" : 0,
            "byteLength" : 25912,
            "byteOffset" : 1477256
        },
        {
            "buffer" : 0,
            "byteLength" : 6912,
            "byteOffset" : 1503168
        },
        {
            "buffer" : 0,
            "byteLength" : 19320,
            "byteOffset" : 1510080
        },
        {
            "buffer" : 0,
            "byteLength" : 19320,
            "byteOffset" : 1529400
        },
        {
            "buffer" : 0,
            "byteLength" : 12880,
            "byteOffset" : 1548720
        },
        {
            "buffer" : 0,
            "byteLength" : 10704,
            "byteOffset" : 1561600
        },
        {
            "buffer" : 0,
            "byteLength" : 267444,
            "byteOffset" : 1572304
        },
        {
            "buffer" : 0,
            "byteLength" : 267444,
            "byteOffset" : 1839748
        },
        {
            "buffer" : 0,
            "byteLength" : 178296,
            "byteOffset" : 2107192
        },
        {
            "buffer" : 0,
            "byteLength" : 222336,
            "byteOffset" : 2285488
        },
        {
            "buffer" : 0,
            "byteLength" : 13908,
            "byteOffset" : 2507824
        },
        {
            "buffer" : 0,
            "byteLength" : 13908,
            "byteOffset" : 2521732
        },
        {
            "buffer" : 0,
            "byteLength" : 9272,
            "byteOffset" : 2535640
        },
        {
            "buffer" : 0,
            "byteLength" : 7008,
            "byteOffset" : 2544912
        },
        {
            "buffer" : 0,
            "byteLength" : 2808,
            "byteOffset" : 2551920
        },
        {
            "buffer" : 0,
            "byteLength" : 2808,
            "byteOffset" : 2554728
        },
        {
            "buffer" : 0,
            "byteLength" : 1872,
            "byteOffset" : 2557536
        },
        {
            "buffer" : 0,
            "byteLength" : 2400,
            "byteOffset" : 2559408
        },
        {
            "buffer" : 0,
            "byteLength" : 37845,
            "byteOffset" : 2561808
        },
        {
            "buffer" : 0,
            "byteLength" : 4440,
            "byteOffset" : 2599656
        },
        {
            "buffer" : 0,
            "byteLength" : 4440,
            "byteOffset" : 2604096
        },
        {
            "buffer" : 0,
            "byteLength" : 2960,
            "byteOffset" : 2608536
        },
        {
            "buffer" : 0,
            "byteLength" : 2736,
            "byteOffset" : 2611496
        },
        {
            "buffer" : 0,
            "byteLength" : 50412,
            "byteOffset" : 2614232
        },
        {
            "buffer" : 0,
            "byteLength" : 50412,
            "byteOffset" : 2664644
        },
        {
            "buffer" : 0,
            "byteLength" : 33608,
            "byteOffset" : 2715056
        },
        {
            "buffer" : 0,
            "byteLength" : 8544,
            "byteOffset" : 2748664
        }
    ],
    "samplers" : [
        {
            "magFilter" : 9729,
            "minFilter" : 9987
        }
    ],
    "buffers" : [
        {
            "byteLength" : 2757208,
            "uri" : "data:application/octet-stream;base64,"
        }
    ]
}
