{
    "asset" : {
        "generator" : "Khronos glTF Blender I/O v1.5.17",
        "version" : "2.0"
    },
    "scene" : 0,
    "scenes" : [
        {
            "name" : "Scene",
            "nodes" : [
                0
            ]
        }
    ],
    "nodes" : [
        {
            "mesh" : 0,
            "name" : "Studio S",
            "rotation" : [
                0,
                -0.7071068286895752,
                0,
                0.7071068286895752
            ],
            "translation" : [
                0.07141456007957458,
                0,
                0.12941330671310425
            ]
        }
    ],
    "materials" : [
        {
            "doubleSided" : true,
            "name" : "mat_clay",
            "pbrMetallicRoughness" : {
                "baseColorFactor" : [
                    0.14575812220573425,
                    0.6124078631401062,
                    1,
                    1
                ],
                "metallicFactor" : 0.3499999940395355,
                "roughnessFactor" : 0.1599999964237213
            }
        }
    ],
    "meshes" : [
        {
            "extras" : {
                "targetNames" : [
                    "Roundness 1",
                    "Rundness 2",
                    "Edge Length",
                    "Height",
                    "Length",
                    "Width"
                ]
            },
            "name" : "Plane.001",
            "primitives" : [
                {
                    "attributes" : {
                        "POSITION" : 0,
                        "NORMAL" : 1
                    },
                    "indices" : 2,
                    "material" : 0,
                    "targets" : [
                        {
                            "POSITION" : 3,
                            "NORMAL" : 4
                        },
                        {
                            "POSITION" : 5,
                            "NORMAL" : 6
                        },
                        {
                            "POSITION" : 7,
                            "NORMAL" : 8
                        },
                        {
                            "POSITION" : 9,
                            "NORMAL" : 10
                        },
                        {
                            "POSITION" : 11,
                            "NORMAL" : 12
                        },
                        {
                            "POSITION" : 13,
                            "NORMAL" : 14
                        }
                    ]
                }
            ],
            "weights" : [
                0,
                0,
                0,
                0,
                0,
                0
            ]
        }
    ],
    "accessors" : [
        {
            "bufferView" : 0,
            "componentType" : 5126,
            "count" : 55,
            "max" : [
                2.5637147426605225,
                3.75877046585083,
                4
            ],
            "min" : [
                -3.318080425262451,
                -1.4114179611206055,
                -4
            ],
            "type" : "VEC3"
        },
        {
            "bufferView" : 1,
            "componentType" : 5126,
            "count" : 55,
            "type" : "VEC3"
        },
        {
            "bufferView" : 2,
            "componentType" : 5123,
            "count" : 240,
            "type" : "SCALAR"
        },
        {
            "bufferView" : 3,
            "componentType" : 5126,
            "count" : 55,
            "max" : [
                1.600000023841858,
                1.4377295970916748,
                0
            ],
            "min" : [
                -0.5232906341552734,
                0,
                0
            ],
            "type" : "VEC3"
        },
        {
            "bufferView" : 4,
            "componentType" : 5126,
            "count" : 55,
            "type" : "VEC3"
        },
        {
            "bufferView" : 5,
            "componentType" : 5126,
            "count" : 55,
            "max" : [
                0.369382381439209,
                0,
                0
            ],
            "min" : [
                -1.6000001430511475,
                -1.0148677825927734,
                0
            ],
            "type" : "VEC3"
        },
        {
            "bufferView" : 6,
            "componentType" : 5126,
            "count" : 55,
            "type" : "VEC3"
        },
        {
            "bufferView" : 7,
            "componentType" : 5126,
            "count" : 55,
            "max" : [
                0.27361631393432617,
                0,
                0
            ],
            "min" : [
                0,
                -0.7517540454864502,
                0
            ],
            "type" : "VEC3"
        },
        {
            "bufferView" : 8,
            "componentType" : 5126,
            "count" : 55,
            "type" : "VEC3"
        },
        {
            "bufferView" : 9,
            "componentType" : 5126,
            "count" : 55,
            "max" : [
                0,
                2.819077730178833,
                0
            ],
            "min" : [
                -1.0260601043701172,
                -2.384185791015625e-07,
                0
            ],
            "type" : "VEC3"
        },
        {
            "bufferView" : 10,
            "componentType" : 5126,
            "count" : 55,
            "type" : "VEC3"
        },
        {
            "bufferView" : 11,
            "componentType" : 5126,
            "count" : 55,
            "max" : [
                3.000000238418579,
                0,
                0
            ],
            "min" : [
                0,
                0,
                0
            ],
            "type" : "VEC3"
        },
        {
            "bufferView" : 12,
            "componentType" : 5126,
            "count" : 55,
            "type" : "VEC3"
        },
        {
            "bufferView" : 13,
            "componentType" : 5126,
            "count" : 55,
            "max" : [
                0,
                0,
                2
            ],
            "min" : [
                0,
                0,
                -2
            ],
            "type" : "VEC3"
        },
        {
            "bufferView" : 14,
            "componentType" : 5126,
            "count" : 55,
            "type" : "VEC3"
        }
    ],
    "bufferViews" : [
        {
            "buffer" : 0,
            "byteLength" : 660,
            "byteOffset" : 0
        },
        {
            "buffer" : 0,
            "byteLength" : 660,
            "byteOffset" : 660
        },
        {
            "buffer" : 0,
            "byteLength" : 480,
            "byteOffset" : 1320
        },
        {
            "buffer" : 0,
            "byteLength" : 660,
            "byteOffset" : 1800
        },
        {
            "buffer" : 0,
            "byteLength" : 660,
            "byteOffset" : 2460
        },
        {
            "buffer" : 0,
            "byteLength" : 660,
            "byteOffset" : 3120
        },
        {
            "buffer" : 0,
            "byteLength" : 660,
            "byteOffset" : 3780
        },
        {
            "buffer" : 0,
            "byteLength" : 660,
            "byteOffset" : 4440
        },
        {
            "buffer" : 0,
            "byteLength" : 660,
            "byteOffset" : 5100
        },
        {
            "buffer" : 0,
            "byteLength" : 660,
            "byteOffset" : 5760
        },
        {
            "buffer" : 0,
            "byteLength" : 660,
            "byteOffset" : 6420
        },
        {
            "buffer" : 0,
            "byteLength" : 660,
            "byteOffset" : 7080
        },
        {
            "buffer" : 0,
            "byteLength" : 660,
            "byteOffset" : 7740
        },
        {
            "buffer" : 0,
            "byteLength" : 660,
            "byteOffset" : 8400
        },
        {
            "buffer" : 0,
            "byteLength" : 660,
            "byteOffset" : 9060
        }
    ],
    "buffers" : [
        {
            "byteLength" : 9720,
            "uri" : "data:application/octet-stream;base64,"
        }
    ]
}
